# OBJ generated by ONSHAPE BY PTC INC, 1.216 Units = meters
mtllib aruco2.mtl
g Part 1
v 0.0125 0 -0.0978925 
v -0.0125 0 -0.0978925 
v -0.0125 0.33 -0.0978925 
v 0.0125 0.33 -0.0978925 
v -0.0125 0.33 0.102107 
v 0.0125 0.33 0.102107 
v -0.0125 0 0.102107 
v 0.0125 0 0.102107 
v 0.0125 0.3025 0.0571075 
v 0.0125 0.1925 0.0571075 
v 0.0125 0.1925 -0.0528925 
v 0.0125 0.3025 -0.0528925 
v 0.0225 0.1925 -0.0528925 
v 0.0225 0.3025 -0.0528925 
v 0.0225 0.3025 0.0571075 
v 0.0225 0.1925 0.0571075 
vn 0 -2.94377e-16 -1 
vn 0 1 0 
vn 0 2.94377e-16 1 
vn 0 -1 0 
vn -1 0 0 
vn 1 0 0 
vn 0 6.30809e-17 -1 
vn 0 1 0 
vn 0 0 1 
vn 0 -1 -1.26162e-16 
vn 1 0 0 
usemtl 0.615686_0.811765_0.929412_0.000000_0.000000
o mesh0
f 1//1 2//1 3//1 
f 3//1 4//1 1//1 
o mesh1
f 4//2 3//2 5//2 
f 5//2 6//2 4//2 
o mesh2
f 6//3 5//3 7//3 
f 7//3 8//3 6//3 
o mesh3
f 8//4 7//4 2//4 
f 2//4 1//4 8//4 
o mesh4
f 5//5 3//5 2//5 
f 2//5 7//5 5//5 
o mesh5
f 4//6 6//6 9//6 
f 6//6 8//6 10//6 
f 10//6 9//6 6//6 
f 8//6 1//6 11//6 
f 11//6 10//6 8//6 
f 4//6 12//6 11//6 
f 11//6 1//6 4//6 
f 9//6 12//6 4//6 
o mesh6
f 13//7 11//7 12//7 
f 12//7 14//7 13//7 
o mesh7
f 14//8 12//8 9//8 
f 9//8 15//8 14//8 
o mesh8
f 15//9 9//9 10//9 
f 10//9 16//9 15//9 
o mesh9
f 16//10 10//10 11//10 
f 11//10 13//10 16//10 
o mesh10
f 16//11 13//11 14//11 
f 14//11 15//11 16//11 
